<svg width="228" height="40" viewBox="0 0 228 40" fill="none" xmlns="http://www.w3.org/2000/svg">
<path d="M34.1422 5.85781C30.3647 2.08031 25.3422 0 20 0C14.6578 0 9.63531 2.08031 5.85781 5.85781C2.08031 9.63531 0 14.6578 0 20C0 25.3422 2.08039 30.3646 5.85781 34.1422C9.63523 37.9198 14.6578 40 20 40C25.3422 40 30.3647 37.9197 34.1422 34.1422C37.9197 30.3647 40 25.3422 40 20C40 14.6578 37.9196 9.63539 34.1422 5.85781Z" fill="white"/>
<g clip-path="url(#clip0_35212_417)">
<path d="M20.5714 8V33.1429" stroke="#222222" stroke-width="2" stroke-linecap="round" stroke-linejoin="round"/>
<path d="M26.2857 12.5714H17.7143C16.6534 12.5714 15.636 12.9929 14.8859 13.743C14.1357 14.4931 13.7143 15.5106 13.7143 16.5714C13.7143 17.6323 14.1357 18.6497 14.8859 19.3999C15.636 20.15 16.6534 20.5714 17.7143 20.5714H23.4286C24.4894 20.5714 25.5069 20.9929 26.257 21.743C27.0072 22.4932 27.4286 23.5106 27.4286 24.5714C27.4286 25.6323 27.0072 26.6497 26.257 27.3999C25.5069 28.15 24.4894 28.5714 23.4286 28.5714H13.7143" stroke="#222222" stroke-width="2" stroke-linecap="round" stroke-linejoin="round"/>
</g>
<path d="M50.415 25.144C49.5617 25.144 48.7937 24.9573 48.111 24.584C47.4283 24.2 46.8897 23.6613 46.495 22.968C46.111 22.2747 45.919 21.4747 45.919 20.568C45.919 19.6613 46.1163 18.8613 46.511 18.168C46.9163 17.4747 47.4657 16.9413 48.159 16.568C48.8523 16.184 49.6257 15.992 50.479 15.992C51.3323 15.992 52.1057 16.184 52.799 16.568C53.4923 16.9413 54.0363 17.4747 54.431 18.168C54.8363 18.8613 55.039 19.6613 55.039 20.568C55.039 21.4747 54.831 22.2747 54.415 22.968C54.0097 23.6613 53.455 24.2 52.751 24.584C52.0577 24.9573 51.279 25.144 50.415 25.144ZM50.415 23.192C50.8203 23.192 51.199 23.096 51.551 22.904C51.9137 22.7013 52.2017 22.4027 52.415 22.008C52.6283 21.6133 52.735 21.1333 52.735 20.568C52.735 19.7253 52.511 19.08 52.063 18.632C51.6257 18.1733 51.087 17.944 50.447 17.944C49.807 17.944 49.2683 18.1733 48.831 18.632C48.4043 19.08 48.191 19.7253 48.191 20.568C48.191 21.4107 48.399 22.0613 48.815 22.52C49.2417 22.968 49.775 23.192 50.415 23.192ZM60.1541 15.992C60.8155 15.992 61.3968 16.1253 61.8981 16.392C62.3995 16.648 62.7941 16.984 63.0821 17.4V16.136H65.3381V25.064C65.3381 25.8853 65.1728 26.616 64.8421 27.256C64.5115 27.9067 64.0155 28.4187 63.3541 28.792C62.6928 29.176 61.8928 29.368 60.9541 29.368C59.6955 29.368 58.6608 29.0747 57.8501 28.488C57.0501 27.9013 56.5968 27.1013 56.4901 26.088H58.7141C58.8315 26.4933 59.0821 26.8133 59.4661 27.048C59.8608 27.2933 60.3355 27.416 60.8901 27.416C61.5408 27.416 62.0688 27.2187 62.4741 26.824C62.8795 26.44 63.0821 25.8533 63.0821 25.064V23.688C62.7941 24.104 62.3941 24.4507 61.8821 24.728C61.3808 25.0053 60.8048 25.144 60.1541 25.144C59.4075 25.144 58.7248 24.952 58.1061 24.568C57.4875 24.184 56.9968 23.6453 56.6341 22.952C56.2821 22.248 56.1061 21.4427 56.1061 20.536C56.1061 19.64 56.2821 18.8453 56.6341 18.152C56.9968 17.4587 57.4821 16.9253 58.0901 16.552C58.7088 16.1787 59.3968 15.992 60.1541 15.992ZM63.0821 20.568C63.0821 20.024 62.9755 19.56 62.7621 19.176C62.5488 18.7813 62.2608 18.4827 61.8981 18.28C61.5355 18.0667 61.1461 17.96 60.7301 17.96C60.3141 17.96 59.9301 18.0613 59.5781 18.264C59.2261 18.4667 58.9381 18.7653 58.7141 19.16C58.5008 19.544 58.3941 20.0027 58.3941 20.536C58.3941 21.0693 58.5008 21.5387 58.7141 21.944C58.9381 22.3387 59.2261 22.6427 59.5781 22.856C59.9408 23.0693 60.3248 23.176 60.7301 23.176C61.1461 23.176 61.5355 23.0747 61.8981 22.872C62.2608 22.6587 62.5488 22.36 62.7621 21.976C62.9755 21.5813 63.0821 21.112 63.0821 20.568ZM66.9499 20.536C66.9499 19.64 67.1259 18.8453 67.4779 18.152C67.8405 17.4587 68.3259 16.9253 68.9339 16.552C69.5525 16.1787 70.2405 15.992 70.9979 15.992C71.6592 15.992 72.2352 16.1253 72.7259 16.392C73.2272 16.6587 73.6272 16.9947 73.9259 17.4V16.136H76.1819V25H73.9259V23.704C73.6379 24.12 73.2379 24.4667 72.7259 24.744C72.2245 25.0107 71.6432 25.144 70.9819 25.144C70.2352 25.144 69.5525 24.952 68.9339 24.568C68.3259 24.184 67.8405 23.6453 67.4779 22.952C67.1259 22.248 66.9499 21.4427 66.9499 20.536ZM73.9259 20.568C73.9259 20.024 73.8192 19.56 73.6059 19.176C73.3925 18.7813 73.1045 18.4827 72.7419 18.28C72.3792 18.0667 71.9899 17.96 71.5739 17.96C71.1579 17.96 70.7739 18.0613 70.4219 18.264C70.0699 18.4667 69.7819 18.7653 69.5579 19.16C69.3445 19.544 69.2379 20.0027 69.2379 20.536C69.2379 21.0693 69.3445 21.5387 69.5579 21.944C69.7819 22.3387 70.0699 22.6427 70.4219 22.856C70.7845 23.0693 71.1685 23.176 71.5739 23.176C71.9899 23.176 72.3792 23.0747 72.7419 22.872C73.1045 22.6587 73.3925 22.36 73.6059 21.976C73.8192 21.5813 73.9259 21.112 73.9259 20.568ZM83.2816 16.008C84.3376 16.008 85.191 16.344 85.8416 17.016C86.4923 17.6773 86.8176 18.6053 86.8176 19.8V25H84.5776V20.104C84.5776 19.4 84.4016 18.8613 84.0496 18.488C83.6976 18.104 83.2176 17.912 82.6096 17.912C81.991 17.912 81.5003 18.104 81.1376 18.488C80.7856 18.8613 80.6096 19.4 80.6096 20.104V25H78.3696V16.136H80.6096V17.24C80.9083 16.856 81.287 16.5573 81.7456 16.344C82.215 16.12 82.727 16.008 83.2816 16.008ZM90.0838 15.08C89.6891 15.08 89.3584 14.9573 89.0918 14.712C88.8358 14.456 88.7078 14.1413 88.7078 13.768C88.7078 13.3947 88.8358 13.0853 89.0918 12.84C89.3584 12.584 89.6891 12.456 90.0838 12.456C90.4784 12.456 90.8038 12.584 91.0598 12.84C91.3264 13.0853 91.4598 13.3947 91.4598 13.768C91.4598 14.1413 91.3264 14.456 91.0598 14.712C90.8038 14.9573 90.4784 15.08 90.0838 15.08ZM91.1878 16.136V25H88.9478V16.136H91.1878ZM95.4489 23.16H99.4009V25H92.9049V23.192L96.7769 17.976H92.9209V16.136H99.3529V17.944L95.4489 23.16ZM109.375 20.376C109.375 20.696 109.354 20.984 109.311 21.24H102.831C102.885 21.88 103.109 22.3813 103.503 22.744C103.898 23.1067 104.383 23.288 104.959 23.288C105.791 23.288 106.383 22.9307 106.735 22.216H109.151C108.895 23.0693 108.405 23.7733 107.679 24.328C106.954 24.872 106.063 25.144 105.007 25.144C104.154 25.144 103.386 24.9573 102.703 24.584C102.031 24.2 101.503 23.6613 101.119 22.968C100.746 22.2747 100.559 21.4747 100.559 20.568C100.559 19.6507 100.746 18.8453 101.119 18.152C101.493 17.4587 102.015 16.9253 102.687 16.552C103.359 16.1787 104.133 15.992 105.007 15.992C105.85 15.992 106.602 16.1733 107.263 16.536C107.935 16.8987 108.453 17.416 108.815 18.088C109.189 18.7493 109.375 19.512 109.375 20.376ZM107.055 19.736C107.045 19.16 106.837 18.7013 106.431 18.36C106.026 18.008 105.53 17.832 104.943 17.832C104.389 17.832 103.919 18.0027 103.535 18.344C103.162 18.6747 102.933 19.1387 102.847 19.736H107.055ZM110.434 20.536C110.434 19.64 110.61 18.8453 110.962 18.152C111.325 17.4587 111.816 16.9253 112.434 16.552C113.053 16.1787 113.741 15.992 114.498 15.992C115.074 15.992 115.624 16.12 116.146 16.376C116.669 16.6213 117.085 16.952 117.394 17.368V13.16H119.666V25H117.394V23.688C117.117 24.1253 116.728 24.4773 116.226 24.744C115.725 25.0107 115.144 25.144 114.482 25.144C113.736 25.144 113.053 24.952 112.434 24.568C111.816 24.184 111.325 23.6453 110.962 22.952C110.61 22.248 110.434 21.4427 110.434 20.536ZM117.41 20.568C117.41 20.024 117.304 19.56 117.09 19.176C116.877 18.7813 116.589 18.4827 116.226 18.28C115.864 18.0667 115.474 17.96 115.058 17.96C114.642 17.96 114.258 18.0613 113.906 18.264C113.554 18.4667 113.266 18.7653 113.042 19.16C112.829 19.544 112.722 20.0027 112.722 20.536C112.722 21.0693 112.829 21.5387 113.042 21.944C113.266 22.3387 113.554 22.6427 113.906 22.856C114.269 23.0693 114.653 23.176 115.058 23.176C115.474 23.176 115.864 23.0747 116.226 22.872C116.589 22.6587 116.877 22.36 117.09 21.976C117.304 21.5813 117.41 21.112 117.41 20.568ZM128.275 17.976V22.264C128.275 22.5627 128.344 22.7813 128.483 22.92C128.632 23.048 128.877 23.112 129.219 23.112H130.259V25H128.851C126.963 25 126.019 24.0827 126.019 22.248V17.976H124.963V16.136H126.019V13.944H128.275V16.136H130.259V17.976H128.275ZM134.11 17.512C134.398 17.0427 134.771 16.6747 135.23 16.408C135.699 16.1413 136.232 16.008 136.83 16.008V18.36H136.238C135.534 18.36 135 18.5253 134.638 18.856C134.286 19.1867 134.11 19.7627 134.11 20.584V25H131.87V16.136H134.11V17.512ZM137.762 20.536C137.762 19.64 137.938 18.8453 138.29 18.152C138.653 17.4587 139.138 16.9253 139.746 16.552C140.365 16.1787 141.053 15.992 141.81 15.992C142.472 15.992 143.048 16.1253 143.538 16.392C144.04 16.6587 144.44 16.9947 144.738 17.4V16.136H146.994V25H144.738V23.704C144.45 24.12 144.05 24.4667 143.538 24.744C143.037 25.0107 142.456 25.144 141.794 25.144C141.048 25.144 140.365 24.952 139.746 24.568C139.138 24.184 138.653 23.6453 138.29 22.952C137.938 22.248 137.762 21.4427 137.762 20.536ZM144.738 20.568C144.738 20.024 144.632 19.56 144.418 19.176C144.205 18.7813 143.917 18.4827 143.554 18.28C143.192 18.0667 142.802 17.96 142.386 17.96C141.97 17.96 141.586 18.0613 141.234 18.264C140.882 18.4667 140.594 18.7653 140.37 19.16C140.157 19.544 140.05 20.0027 140.05 20.536C140.05 21.0693 140.157 21.5387 140.37 21.944C140.594 22.3387 140.882 22.6427 141.234 22.856C141.597 23.0693 141.981 23.176 142.386 23.176C142.802 23.176 143.192 23.0747 143.554 22.872C143.917 22.6587 144.205 22.36 144.418 21.976C144.632 21.5813 144.738 21.112 144.738 20.568ZM154.094 16.008C155.15 16.008 156.003 16.344 156.654 17.016C157.305 17.6773 157.63 18.6053 157.63 19.8V25H155.39V20.104C155.39 19.4 155.214 18.8613 154.862 18.488C154.51 18.104 154.03 17.912 153.422 17.912C152.803 17.912 152.313 18.104 151.95 18.488C151.598 18.8613 151.422 19.4 151.422 20.104V25H149.182V16.136H151.422V17.24C151.721 16.856 152.099 16.5573 152.558 16.344C153.027 16.12 153.539 16.008 154.094 16.008ZM163.152 25.144C162.427 25.144 161.776 25.016 161.2 24.76C160.624 24.4933 160.166 24.136 159.824 23.688C159.494 23.24 159.312 22.744 159.28 22.2H161.536C161.579 22.5413 161.744 22.824 162.032 23.048C162.331 23.272 162.699 23.384 163.136 23.384C163.563 23.384 163.894 23.2987 164.128 23.128C164.374 22.9573 164.496 22.7387 164.496 22.472C164.496 22.184 164.347 21.9707 164.048 21.832C163.76 21.6827 163.296 21.5227 162.656 21.352C161.995 21.192 161.451 21.0267 161.024 20.856C160.608 20.6853 160.246 20.424 159.936 20.072C159.638 19.72 159.488 19.2453 159.488 18.648C159.488 18.1573 159.627 17.7093 159.904 17.304C160.192 16.8987 160.598 16.5787 161.12 16.344C161.654 16.1093 162.278 15.992 162.992 15.992C164.048 15.992 164.891 16.2587 165.52 16.792C166.15 17.3147 166.496 18.024 166.56 18.92H164.416C164.384 18.568 164.235 18.2907 163.968 18.088C163.712 17.8747 163.366 17.768 162.928 17.768C162.523 17.768 162.208 17.8427 161.984 17.992C161.771 18.1413 161.664 18.3493 161.664 18.616C161.664 18.9147 161.814 19.144 162.112 19.304C162.411 19.4533 162.875 19.608 163.504 19.768C164.144 19.928 164.672 20.0933 165.088 20.264C165.504 20.4347 165.862 20.7013 166.16 21.064C166.47 21.416 166.63 21.8853 166.64 22.472C166.64 22.984 166.496 23.4427 166.208 23.848C165.931 24.2533 165.526 24.5733 164.992 24.808C164.47 25.032 163.856 25.144 163.152 25.144ZM167.903 20.536C167.903 19.64 168.079 18.8453 168.431 18.152C168.794 17.4587 169.279 16.9253 169.887 16.552C170.506 16.1787 171.194 15.992 171.951 15.992C172.612 15.992 173.188 16.1253 173.679 16.392C174.18 16.6587 174.58 16.9947 174.879 17.4V16.136H177.135V25H174.879V23.704C174.591 24.12 174.191 24.4667 173.679 24.744C173.178 25.0107 172.596 25.144 171.935 25.144C171.188 25.144 170.506 24.952 169.887 24.568C169.279 24.184 168.794 23.6453 168.431 22.952C168.079 22.248 167.903 21.4427 167.903 20.536ZM174.879 20.568C174.879 20.024 174.772 19.56 174.559 19.176C174.346 18.7813 174.058 18.4827 173.695 18.28C173.332 18.0667 172.943 17.96 172.527 17.96C172.111 17.96 171.727 18.0613 171.375 18.264C171.023 18.4667 170.735 18.7653 170.511 19.16C170.298 19.544 170.191 20.0027 170.191 20.536C170.191 21.0693 170.298 21.5387 170.511 21.944C170.735 22.3387 171.023 22.6427 171.375 22.856C171.738 23.0693 172.122 23.176 172.527 23.176C172.943 23.176 173.332 23.0747 173.695 22.872C174.058 22.6587 174.346 22.36 174.559 21.976C174.772 21.5813 174.879 21.112 174.879 20.568ZM178.747 20.568C178.747 19.6507 178.933 18.8507 179.307 18.168C179.68 17.4747 180.197 16.9413 180.859 16.568C181.52 16.184 182.277 15.992 183.131 15.992C184.229 15.992 185.136 16.2693 185.851 16.824C186.576 17.368 187.061 18.136 187.307 19.128H184.891C184.763 18.744 184.544 18.4453 184.235 18.232C183.936 18.008 183.563 17.896 183.115 17.896C182.475 17.896 181.968 18.1307 181.595 18.6C181.221 19.0587 181.035 19.7147 181.035 20.568C181.035 21.4107 181.221 22.0667 181.595 22.536C181.968 22.9947 182.475 23.224 183.115 23.224C184.021 23.224 184.613 22.8187 184.891 22.008H187.307C187.061 22.968 186.576 23.7307 185.851 24.296C185.125 24.8613 184.219 25.144 183.131 25.144C182.277 25.144 181.52 24.9573 180.859 24.584C180.197 24.2 179.68 23.6667 179.307 22.984C178.933 22.2907 178.747 21.4853 178.747 20.568ZM191.556 17.976V22.264C191.556 22.5627 191.625 22.7813 191.764 22.92C191.913 23.048 192.158 23.112 192.5 23.112H193.54V25H192.132C190.244 25 189.3 24.0827 189.3 22.248V17.976H188.244V16.136H189.3V13.944H191.556V16.136H193.54V17.976H191.556ZM196.287 15.08C195.892 15.08 195.562 14.9573 195.295 14.712C195.039 14.456 194.911 14.1413 194.911 13.768C194.911 13.3947 195.039 13.0853 195.295 12.84C195.562 12.584 195.892 12.456 196.287 12.456C196.682 12.456 197.007 12.584 197.263 12.84C197.53 13.0853 197.663 13.3947 197.663 13.768C197.663 14.1413 197.53 14.456 197.263 14.712C197.007 14.9573 196.682 15.08 196.287 15.08ZM197.391 16.136V25H195.151V16.136H197.391ZM203.54 25.144C202.687 25.144 201.919 24.9573 201.236 24.584C200.553 24.2 200.015 23.6613 199.62 22.968C199.236 22.2747 199.044 21.4747 199.044 20.568C199.044 19.6613 199.241 18.8613 199.636 18.168C200.041 17.4747 200.591 16.9413 201.284 16.568C201.977 16.184 202.751 15.992 203.604 15.992C204.457 15.992 205.231 16.184 205.924 16.568C206.617 16.9413 207.161 17.4747 207.556 18.168C207.961 18.8613 208.164 19.6613 208.164 20.568C208.164 21.4747 207.956 22.2747 207.54 22.968C207.135 23.6613 206.58 24.2 205.876 24.584C205.183 24.9573 204.404 25.144 203.54 25.144ZM203.54 23.192C203.945 23.192 204.324 23.096 204.676 22.904C205.039 22.7013 205.327 22.4027 205.54 22.008C205.753 21.6133 205.86 21.1333 205.86 20.568C205.86 19.7253 205.636 19.08 205.188 18.632C204.751 18.1733 204.212 17.944 203.572 17.944C202.932 17.944 202.393 18.1733 201.956 18.632C201.529 19.08 201.316 19.7253 201.316 20.568C201.316 21.4107 201.524 22.0613 201.94 22.52C202.367 22.968 202.9 23.192 203.54 23.192ZM214.719 16.008C215.775 16.008 216.628 16.344 217.279 17.016C217.93 17.6773 218.255 18.6053 218.255 19.8V25H216.015V20.104C216.015 19.4 215.839 18.8613 215.487 18.488C215.135 18.104 214.655 17.912 214.047 17.912C213.428 17.912 212.938 18.104 212.575 18.488C212.223 18.8613 212.047 19.4 212.047 20.104V25H209.807V16.136H212.047V17.24C212.346 16.856 212.724 16.5573 213.183 16.344C213.652 16.12 214.164 16.008 214.719 16.008ZM223.777 25.144C223.052 25.144 222.401 25.016 221.825 24.76C221.249 24.4933 220.791 24.136 220.449 23.688C220.119 23.24 219.937 22.744 219.905 22.2H222.161C222.204 22.5413 222.369 22.824 222.657 23.048C222.956 23.272 223.324 23.384 223.761 23.384C224.188 23.384 224.519 23.2987 224.753 23.128C224.999 22.9573 225.121 22.7387 225.121 22.472C225.121 22.184 224.972 21.9707 224.673 21.832C224.385 21.6827 223.921 21.5227 223.281 21.352C222.62 21.192 222.076 21.0267 221.649 20.856C221.233 20.6853 220.871 20.424 220.561 20.072C220.263 19.72 220.113 19.2453 220.113 18.648C220.113 18.1573 220.252 17.7093 220.529 17.304C220.817 16.8987 221.223 16.5787 221.745 16.344C222.279 16.1093 222.903 15.992 223.617 15.992C224.673 15.992 225.516 16.2587 226.145 16.792C226.775 17.3147 227.121 18.024 227.185 18.92H225.041C225.009 18.568 224.86 18.2907 224.593 18.088C224.337 17.8747 223.991 17.768 223.553 17.768C223.148 17.768 222.833 17.8427 222.609 17.992C222.396 18.1413 222.289 18.3493 222.289 18.616C222.289 18.9147 222.439 19.144 222.737 19.304C223.036 19.4533 223.5 19.608 224.129 19.768C224.769 19.928 225.297 20.0933 225.713 20.264C226.129 20.4347 226.487 20.7013 226.785 21.064C227.095 21.416 227.255 21.8853 227.265 22.472C227.265 22.984 227.121 23.4427 226.833 23.848C226.556 24.2533 226.151 24.5733 225.617 24.808C225.095 25.032 224.481 25.144 223.777 25.144Z" fill="white"/>
<defs>
<clipPath id="clip0_35212_417">
<rect width="27.4286" height="27.4286" fill="white" transform="translate(6.85715 6.85714)"/>
</clipPath>
</defs>
</svg>
